{
    "asset": {
        "version": "2.0",
        "generator": "Open Asset Import Library (assimp v5.4.0)"
    },
    "extensionsUsed": [
        "KHR_materials_volume",
        "FB_ngon_encoding"
    ],
    "accessors": [
        {
            "bufferView": 0,
            "byteOffset": 0,
            "componentType": 5126,
            "count": 51338,
            "type": "VEC3",
            "max": [
                0.26277101039886475,
                0.8236290216445923,
                0.16533200442790985
            ],
            "min": [
                -0.27428799867630005,
                -0.9568520188331604,
                -0.16592299938201904
            ]
        },
        {
            "bufferView": 1,
            "byteOffset": 0,
            "componentType": 5126,
            "count": 51338,
            "type": "VEC3",
            "max": [
                0.9999999403953552,
                0.9996338486671448,
                0.999983549118042
            ],
            "min": [
                -0.9999882578849792,
                -0.9999845027923584,
                -0.9999827146530151
            ]
        },
        {
            "bufferView": 2,
            "byteOffset": 0,
            "componentType": 5126,
            "count": 51338,
            "type": "VEC2",
            "max": [
                0.99853515625,
                1.0
            ],
            "min": [
                0.0001558065414428711,
                0.00013208389282226563
            ]
        },
        {
            "bufferView": 3,
            "byteOffset": 0,
            "componentType": 5125,
            "count": 258324,
            "type": "SCALAR",
            "max": [
                51337
            ],
            "min": [
                0
            ]
        }
    ],
    "buffers": [
        {
            "byteLength": 2676112,
            "uri": "anime_gaming__0629194523_texture_0.bin"
        }
    ],
    "bufferViews": [
        {
            "buffer": 0,
            "byteOffset": 0,
            "byteLength": 616056,
            "target": 34962
        },
        {
            "buffer": 0,
            "byteOffset": 616056,
            "byteLength": 616056,
            "target": 34962
        },
        {
            "buffer": 0,
            "byteOffset": 1232112,
            "byteLength": 410704,
            "target": 34962
        },
        {
            "buffer": 0,
            "byteOffset": 1642816,
            "byteLength": 1033296,
            "target": 34963
        }
    ],
    "images": [
        {
            "uri": "textures/image_0.png"
        }
    ],
    "materials": [
        {
            "name": "Mat_1",
            "pbrMetallicRoughness": {
                "baseColorTexture": {
                    "index": 0
                },
                "metallicFactor": 0.0,
                "roughnessFactor": 0.800000011920929
            },
            "doubleSided": true
        }
    ],
    "meshes": [
        {
            "name": "meshes[0]",
            "primitives": [
                {
                    "mode": 4,
                    "material": 0,
                    "indices": 3,
                    "attributes": {
                        "POSITION": 0,
                        "NORMAL": 1,
                        "TEXCOORD_0": 2
                    }
                }
            ]
        }
    ],
    "nodes": [
        {
            "name": "anime_gaming__0629194523_texture",
            "children": [
                1
            ]
        },
        {
            "name": "mesh_0",
            "mesh": 0
        }
    ],
    "samplers": [
        {
            "magFilter": 9729,
            "minFilter": 9987
        }
    ],
    "scenes": [
        {
            "nodes": [
                0
            ]
        }
    ],
    "textures": [
        {
            "source": 0,
            "sampler": 0
        }
    ],
    "scene": 0
}